HIERARCHY
ROOT Hips
{
  OFFSET 263.056 91.6644 -274.608
  CHANNELS 6 Xposition Yposition Zposition Zrotation Xrotation Yrotation
  JOINT LeftUpLeg
  {
    OFFSET 8.64259 1.95398 -2.38835
    CHANNELS 3 Zrotation Xrotation Yrotation
    JOINT LeftLeg
    {
      OFFSET 43.7702 0 0
      CHANNELS 3 Zrotation Xrotation Yrotation
      JOINT LeftFoot
      {
        OFFSET 40.6238 0 0
        CHANNELS 3 Zrotation Xrotation Yrotation
        JOINT LeftToeBase
        {
          OFFSET 12.7242 0 0
          CHANNELS 3 Zrotation Xrotation Yrotation
          End Site
          {
            OFFSET 0 0 0
          }
        }
      }
    }
  }
  JOINT RightUpLeg
  {
    OFFSET -8.2249 1.95398 -2.59336
    CHANNELS 3 Zrotation Xrotation Yrotation
    JOINT RightLeg
    {
      OFFSET 43.5653 0 0
      CHANNELS 3 Zrotation Xrotation Yrotation
      JOINT RightFoot
      {
        OFFSET 40.6238 0 0
        CHANNELS 3 Zrotation Xrotation Yrotation
        JOINT RightToeBase
        {
          OFFSET 12.7242 0 0
          CHANNELS 3 Zrotation Xrotation Yrotation
          End Site
          {
            OFFSET 0 0 0
          }
        }
      }
    }
  }
  JOINT Spine
  {
    OFFSET 0.165834 0.87714 6.61349
    CHANNELS 3 Zrotation Xrotation Yrotation
    JOINT Spine1
    {
      OFFSET 7.38963 1.71661e-005 0
      CHANNELS 3 Zrotation Xrotation Yrotation
      JOINT Spine2
      {
        OFFSET 11.9445 1.14441e-005 0
        CHANNELS 3 Zrotation Xrotation Yrotation
        JOINT Spine3
        {
          OFFSET 14.7254 4.19617e-005 0
          CHANNELS 3 Zrotation Xrotation Yrotation
          JOINT Spine4
          {
            OFFSET 10.9679 0 0
            CHANNELS 3 Zrotation Xrotation Yrotation
            JOINT RightShoulder
            {
              OFFSET 2.46616 -1.6653 3.69651
              CHANNELS 3 Zrotation Xrotation Yrotation
              JOINT RightArm
              {
                OFFSET 13.0012 0 0
                CHANNELS 3 Zrotation Xrotation Yrotation
                JOINT RightForeArm
                {
                  OFFSET 28.7848 1.52588e-005 0
                  CHANNELS 3 Zrotation Xrotation Yrotation
                  JOINT RightHand
                  {
                    OFFSET 26.5688 1.52588e-005 0
                    CHANNELS 3 Zrotation Xrotation Yrotation
                    End Site
                    {
                      OFFSET 0 0 0
                    }
                  }
                }
              }
            }
            JOINT LeftShoulder
            {
              OFFSET 2.38034 -1.29275 -3.7523
              CHANNELS 3 Zrotation Xrotation Yrotation
              JOINT LeftArm
              {
                OFFSET 16.3182 6.10352e-005 0
                CHANNELS 3 Zrotation Xrotation Yrotation
                JOINT LeftForeArm
                {
                  OFFSET 27.0901 0 0
                  CHANNELS 3 Zrotation Xrotation Yrotation
                  JOINT LeftHand
                  {
                    OFFSET 24.5451 1.52588e-005 0
                    CHANNELS 3 Zrotation Xrotation Yrotation
                    End Site
                    {
                      OFFSET 0 0 0
                    }
                  }
                }
              }
            }
            JOINT Neck
            {
              OFFSET 5.0226 -0.0266342 0
              CHANNELS 3 Zrotation Xrotation Yrotation
              JOINT Head
              {
                OFFSET 6.69364 2.86102e-005 0
                CHANNELS 3 Zrotation Xrotation Yrotation
                End Site
                {
                  OFFSET 0 0 0
                }
              }
            }
          }
        }
      }
    }
  }
}
MOTION
Frames:	7
Frame Time:	0.0416667
-3.02863 97.3887 -8.86692 79.0247 -49.2531 82.0768 -173.028 34.8108 91.4808 -6.8341 7.66542 -3.48328 40.6302 -14.7252 -6.4599 40.5905 14.4086 10.0192 177.771 -5.84341 88.8451 -58.8837 4.13192 -5.51493 30.9192 5.06816 6.14455 13.3486 -1.49058 2.65868 1.53582 7.42846 -89.8065 12.0203 3.14474 0.0430894 0.353163 3.1436 -0.0955015 -22.2102 2.98627 0.987066 -2.19759 2.98628 0.987066 84.4255 -46.9424 -110.329 39.4539 -24.3496 23.9906 -21.5086 15.2816 -110.236 -28.3375 -1.94883 3.23914 -93.2562 -39.9656 70.9025 -54.0147 5.2282 46.8388 8.601 -4.53421 -92.8108 42.1063 3.54255 4.49948 5.96857 -3.09307 0.727572 -0.361863 -3.2145 -1.675 
3.59725 94.9579 -1.94158 82.967 -47.3586 83.4972 -171.794 31.1936 87.9536 -13.7609 15.5657 -4.4549 40.6067 -14.4534 -8.07351 44.3255 20.1548 13.8133 176.772 -0.225446 90.1638 -77.6835 6.7617 -5.06065 30.552 4.60838 5.70281 12.6369 -2.13272 5.41091 1.17031 7.67072 -89.5695 11.5276 2.52969 0.598864 -0.140938 2.55356 0.486883 -22.6912 2.2327 1.33177 -2.67857 2.23269 1.33177 83.5348 -48.6322 -111.104 38.1696 -20.976 25.2585 -15.5868 9.10116 -105.44 -27.8625 -1.23195 0.136691 -94.9898 -41.0015 68.4164 -50.5233 4.22032 44.1346 9.80939 -3.85523 -91.6622 41.5536 3.92596 5.57386 3.70059 -2.85172 -1.04998 1.11089 -2.65717 -0.822478 
10.0677 92.5219 4.79037 84.9751 -45.4619 83.6966 -171.121 31.2061 85.3866 -27.9092 27.1621 -6.64774 53.2037 -3.64007 8.28589 43.2838 14.9676 -6.99499 174.401 8.12794 89.2398 -94.5201 11.3236 -4.45834 29.5285 2.85658 3.93361 13.1385 -2.27131 6.36884 0.777899 7.84063 -89.2658 11.1811 1.88961 1.27652 -0.488972 1.94396 1.1921 -23.026 1.41865 1.78538 -3.01337 1.41867 1.78538 82.6455 -51.0968 -111.572 36.6167 -19.9523 26.061 -15.5565 8.31021 -100.86 -27.2498 -1.32165 0.688506 -97.1157 -41.5324 65.1895 -46.1858 3.22961 41.0826 10.4188 -3.61623 -91.5657 40.9958 3.38146 4.34734 2.26004 -2.5067 -3.62363 2.71368 -1.87077 0.396906 
16.423 90.2612 10.9956 85.5371 -46.6032 82.6978 -169.923 31.0303 83.087 -42.5282 19.105 -6.20948 64.3844 7.63104 10.2755 37.1322 8.71958 -13.0611 174.076 20.6281 89.4352 -108.628 14.5766 -4.93711 26.6284 1.33398 2.45459 14.5125 -1.90192 5.30464 0.433713 7.97609 -88.9137 10.9049 1.36589 2.03272 -0.766803 1.45402 1.97066 -23.291 0.692013 2.34908 -3.27831 0.692038 2.34909 81.653 -51.411 -112.921 37.2261 -19.3244 26.6354 -15.3366 5.16844 -93.3439 -29.9602 -1.51037 0.986512 -98.0556 -42.5518 64.102 -41.4267 2.7239 36.7768 11.7167 -3.45846 -92.2633 42.0675 4.14608 5.97803 3.30906 -1.17815 -4.70018 3.25689 -0.331718 0.635594 
22.2995 88.5007 16.8721 84.4146 -45.2339 80.8347 -170.819 28.6812 80.6095 -48.4107 18.4929 -4.758 66.7586 13.3847 16.0945 46.4077 17.1609 -11.2992 172.67 35.7465 91.6906 -117.819 12.3136 -5.43303 23.8107 2.13408 3.45372 18.1283 -1.40227 4.73466 -0.135636 8.17306 -88.7124 10.5161 0.321016 2.52904 -1.15722 0.431983 2.51247 -23.6728 -0.453638 2.50865 -3.66016 -0.453644 2.50865 80.5518 -51.6084 -114.457 36.8847 -18.1625 27.6524 -13.3053 2.5122 -87.6495 -31.3334 -1.61319 1.08882 -101.874 -43.3744 58.529 -33.9851 0.724384 30.4434 13.8264 -3.45786 -94.3968 38.1078 4.593 8.33728 8.74508 -0.171075 -4.68332 0.473227 0.860667 0.761655 
29.3352 88.7546 22.9028 83.1035 -44.17 82.2883 -171.868 23.4472 82.9184 -48.3902 21.5666 -3.8189 66.2249 15.3437 19.8935 51.9612 22.4845 -9.90176 170.651 47.1196 96.9733 -117.365 9.76942 -5.56752 26.0469 3.05254 4.28002 20.0425 -1.20373 4.72655 -0.43793 8.18001 -88.9831 10.5142 -0.405402 2.05773 -1.15827 -0.314461 2.07355 -23.6833 -1.00501 1.84087 -3.67059 -1.005 1.84088 79.7208 -52.6445 -115.265 37.1508 -17.7923 32.0002 -12.1229 0.89391 -84.1871 -32.1931 -1.41608 0.204878 -103.125 -42.1853 56.0577 -28.674 1.75884 23.1613 14.3964 -3.72258 -96.1735 39.86 4.92269 8.57894 9.51142 0.331613 -5.31906 0.306842 1.55395 1.68447 
36.6863 90.81 29.4197 83.6253 -42.0582 84.6986 -173.872 14.4889 85.5009 -42.9647 24.2352 -1.86222 63.7163 12.1145 17.2685 55.6062 26.5697 -7.55 168.542 53.1558 100.144 -109.588 8.08225 -4.95744 33.3652 2.99722 3.66539 21.0047 -0.730519 1.89213 -0.901725 8.15695 -89.2663 10.5685 -1.45878 1.58923 -1.10272 -1.38741 1.65188 -23.6403 -1.86893 1.07734 -3.62766 -1.86892 1.07733 79.0579 -53.8069 -115.763 38.2671 -18.1496 37.6736 -12.5652 0.046944 -80.9376 -32.0032 -1.20271 -0.467065 -101.076 -41.5935 58.9582 -25.8679 0.653048 17.493 15.2441 -5.06728 -101.43 39.2572 4.59118 7.90413 7.23831 1.3705 -5.76267 0.974791 2.5905 2.31657 
